<svg width="30" height="30" viewBox="0 0 30 30" fill="none" xmlns="http://www.w3.org/2000/svg">
	<g clip-path="url(#clip0)">
		<path d="M4 1H29V29H4C2.34315 29 1 27.6569 1 26V4C1 2.34315 2.34315 1 4 1Z" stroke="black" stroke-width="2"/>
		<mask id="path-2-inside-1" fill="white">
			<path d="M30 1C28.0302 1 26.0796 1.38799 24.2597 2.14181C22.4399 2.89563 20.7863 4.00052 19.3934 5.3934C18.0005 6.78628 16.8956 8.43986 16.1418 10.2597C15.388 12.0796 15 14.0302 15 16C15 17.9698 15.388 19.9204 16.1418 21.7403C16.8956 23.5601 18.0005 25.2137 19.3934 26.6066C20.7863 27.9995 22.4399 29.1044 24.2597 29.8582C26.0796 30.612 28.0302 31 30 31L30 16L30 1Z"/>
		</mask>
		<path d="M30 1C28.0302 1 26.0796 1.38799 24.2597 2.14181C22.4399 2.89563 20.7863 4.00052 19.3934 5.3934C18.0005 6.78628 16.8956 8.43986 16.1418 10.2597C15.388 12.0796 15 14.0302 15 16C15 17.9698 15.388 19.9204 16.1418 21.7403C16.8956 23.5601 18.0005 25.2137 19.3934 26.6066C20.7863 27.9995 22.4399 29.1044 24.2597 29.8582C26.0796 30.612 28.0302 31 30 31L30 16L30 1Z" stroke="black" stroke-width="4" mask="url(#path-2-inside-1)"/>
	</g>
	<defs>
		<clipPath id="clip0">
			<rect width="30" height="30" fill="white"/>
		</clipPath>
	</defs>
</svg>
